<svg width="30" height="34" viewBox="0 0 30 34" fill="none" xmlns="http://www.w3.org/2000/svg">
<path d="M30 16.9612C30 8.08269 23.2863 0.88916 15 0.88916C6.71371 0.88916 0 8.08269 0 16.9612C0 25.8397 6.71371 33.0332 15 33.0332C23.2863 33.0332 30 25.8397 30 16.9612ZM2.90323 16.9612C2.90323 9.80006 8.31653 3.99987 15 3.99987C21.6835 3.99987 27.0968 9.80006 27.0968 16.9612C27.0968 24.1223 21.6835 29.9225 15 29.9225C8.31653 29.9225 2.90323 24.1223 2.90323 16.9612ZM7.25806 18.2573V15.6651C7.25806 15.2373 7.58468 14.8874 7.98387 14.8874L15 14.8874V10.5453C15 9.85191 15.7802 9.50843 16.2399 9.99448L22.2278 16.4103C22.5121 16.7149 22.5121 17.2074 22.2278 17.512L16.2399 23.9279C15.7802 24.4204 15 24.0705 15 23.377V19.035H7.98387C7.58468 19.035 7.25806 18.685 7.25806 18.2573Z" fill="white"/>
</svg>
