<svg width="30" height="33" viewBox="0 0 30 33" fill="none" xmlns="http://www.w3.org/2000/svg">
<path d="M30 16.4631C30 7.58464 23.2863 0.391113 15 0.391113C6.71371 0.391113 0 7.58464 0 16.4631C0 25.3416 6.71371 32.5352 15 32.5352C23.2863 32.5352 30 25.3416 30 16.4631ZM2.90323 16.4631C2.90323 9.30201 8.31653 3.50183 15 3.50183C21.6835 3.50183 27.0968 9.30201 27.0968 16.4631C27.0968 23.6243 21.6835 29.4244 15 29.4244C8.31653 29.4244 2.90323 23.6243 2.90323 16.4631ZM7.25806 17.7593V15.167C7.25806 14.7393 7.58468 14.3893 7.98387 14.3893L15 14.3893V10.0473C15 9.35386 15.7802 9.01038 16.2399 9.49643L22.2278 15.9123C22.5121 16.2169 22.5121 16.7094 22.2278 17.014L16.2399 23.4298C15.7802 23.9224 15 23.5724 15 22.879V18.5369H7.98387C7.58468 18.5369 7.25806 18.187 7.25806 17.7593Z" fill="black"/>
</svg>
