<svg width="19" height="20" viewBox="0 0 19 20" fill="none" xmlns="http://www.w3.org/2000/svg">
<path d="M15.6514 19.6696L12.1291 15.9326C11.9701 15.764 11.8811 15.5346 11.88 15.2935L11.8771 14.6795C10.6411 15.7259 9.08324 16.3522 7.38538 16.3613C3.34638 16.3831 0.0572031 12.8936 0.0368481 8.56515C0.0164931 4.2367 3.27268 0.711823 7.31169 0.690017C11.3507 0.668211 14.6399 4.15775 14.6602 8.4862C14.6688 10.3057 14.1001 11.9815 13.1362 13.3165L13.7092 13.3134C13.9342 13.3122 14.149 13.4052 14.308 13.5739L17.8304 17.3108C18.1625 17.6631 18.1652 18.2357 17.8364 18.5879L16.8466 19.6593C16.5178 20.0152 15.9835 20.0181 15.6514 19.6696ZM11.848 8.50138C11.8355 5.83801 9.81465 3.6903 7.32586 3.70373C4.84059 3.71715 2.83649 5.88283 2.84904 8.54997C2.86156 11.2133 4.88243 13.3611 7.37121 13.3476C9.85648 13.3342 11.8606 11.1685 11.848 8.50138Z" fill="white"/>
</svg>
